<svg xmlns="http://www.w3.org/2000/svg" viewBox="0 0 274.01 73.72" style="fill: #4b711d; stroke-width: 0px">
    <title>Moultrie Logo</title>
    <path d="M271.43,0H2.58C1.16,0,0,1.16,0,2.58v68.55c0,1.43,1.16,2.58,2.58,2.58h268.84c1.43,0,2.58-1.16,2.58-2.58V2.58c0-1.43-1.16-2.58-2.58-2.58ZM266.06,65.77H7.95V7.95h258.11v57.82Z"/>
    <path d="M216.23,53.35h12.35V20.27h-12.35v33.08ZM206.67,37.56l-1.6-.38,1.6-.38c3.66-.89,4.98-3.29,4.89-8.87-.1-5.87-1.87-7.67-7.57-7.67h-21.94v33.08h12.53v-13.5h1.9c1.87,0,2.85.97,2.85,2.8v10.7h12.27v-8.33c0-5.06-.58-6.47-4.93-7.46ZM196.95,34.18h-1.91v-7.43h1.91c2.13,0,2.38,1.87,2.38,3.27,0,2.5-.4,4.16-2.38,4.16ZM150.54,27.11h8.06v26.24h12.05v-26.24h7.59v-6.83h-27.69v6.83ZM253.94,27.11v-6.83h-20.6v33.08h20.6v-6.94h-9v-7.08h7.62v-6.22h-7.62v-6h9ZM88.95,20.08h-19.48c-2.8,0-5.08,2.17-5.08,4.84v23.87c0,2.67,2.28,4.84,5.08,4.84h19.48c2.8,0,5.08-2.17,5.08-4.84v-23.87c0-2.67-2.28-4.84-5.08-4.84ZM81.52,42.04c0,2.14-.12,3.42-.38,4.02-.31.69-.97,1.04-1.96,1.04s-1.61-.31-1.9-.92c-.25-.52-.37-1.75-.37-3.88v-11.54c0-2.53.34-3.19.61-3.47.42-.45,1-.67,1.75-.67.9,0,1.52.29,1.84.87.28.51.41,1.55.41,3.27v11.29ZM145.46,20.27h-12.4v33.08h20.93v-6.83h-8.53v-26.24ZM39.91,35.47l-3.93-15.2h-15.91v33.08h10.9v-21.22l5.56,21.22h6.76l5.53-21.25v21.25h10.94V20.27h-15.94l-3.9,15.2ZM115.28,43.85c0,1.39-.25,2.81-2.13,2.81s-2.09-1.6-2.09-2.81v-23.58h-12.72v25.58c0,5.72,2.04,7.75,7.79,7.75h13.7c6.11,0,8.17-1.96,8.17-7.75v-25.58h-12.72v23.58Z"/>
    <path d="M262.71,49.88c0,1.55-1.11,2.69-2.72,2.69s-2.71-1.14-2.72-2.69c0-1.55,1.11-2.69,2.72-2.69s2.72,1.14,2.72,2.69ZM262.12,49.88c0-1.26-.87-2.2-2.12-2.2s-2.12.94-2.12,2.2c0,1.26.87,2.21,2.12,2.21s2.12-.94,2.12-2.2ZM261.19,49.36h0c0,.39-.18.67-.51.82l.53,1.05h-.69l-.46-.95h-.44v.95h-.65v-2.74h1.14c.69,0,1.07.35,1.07.88ZM259.63,49.72h.48c.26,0,.41-.14.41-.35h0c0-.19-.15-.35-.41-.35h-.48v.7Z"/>
</svg>
