<svg xmlns="http://www.w3.org/2000/svg" viewBox="0 0 1200 630" width="1200" height="630">
  <defs>
    <linearGradient id="bg" x1="0%" y1="0%" x2="100%" y2="100%">
      <stop offset="0%" style="stop-color:#0f0c29"/>
      <stop offset="50%" style="stop-color:#302b63"/>
      <stop offset="100%" style="stop-color:#24243e"/>
    </linearGradient>
    <linearGradient id="accent" x1="0%" y1="0%" x2="100%" y2="0%">
      <stop offset="0%" style="stop-color:#00d2ff"/>
      <stop offset="100%" style="stop-color:#7b2ff7"/>
    </linearGradient>
    <linearGradient id="accent2" x1="0%" y1="0%" x2="100%" y2="0%">
      <stop offset="0%" style="stop-color:#7b2ff7"/>
      <stop offset="100%" style="stop-color:#ff6b6b"/>
    </linearGradient>
    <linearGradient id="shimmer" x1="0%" y1="0%" x2="100%" y2="100%">
      <stop offset="0%" style="stop-color:#00d2ff;stop-opacity:0.15"/>
      <stop offset="50%" style="stop-color:#7b2ff7;stop-opacity:0.08"/>
      <stop offset="100%" style="stop-color:#ff6b6b;stop-opacity:0.15"/>
    </linearGradient>
    <filter id="glow">
      <feGaussianBlur stdDeviation="3" result="coloredBlur"/>
      <feMerge>
        <feMergeNode in="coloredBlur"/>
        <feMergeNode in="SourceGraphic"/>
      </feMerge>
    </filter>
    <filter id="glow-strong">
      <feGaussianBlur stdDeviation="8" result="coloredBlur"/>
      <feMerge>
        <feMergeNode in="coloredBlur"/>
        <feMergeNode in="SourceGraphic"/>
      </feMerge>
    </filter>
  </defs>
  
  <!-- Background -->
  <rect width="1200" height="630" fill="url(#bg)"/>
  
  <!-- Grid pattern -->
  <g opacity="0.06">
    <line x1="0" y1="0" x2="0" y2="630" stroke="#00d2ff" stroke-width="0.5"/>
    <line x1="60" y1="0" x2="60" y2="630" stroke="#00d2ff" stroke-width="0.5"/>
    <line x1="120" y1="0" x2="120" y2="630" stroke="#00d2ff" stroke-width="0.5"/>
    <line x1="180" y1="0" x2="180" y2="630" stroke="#00d2ff" stroke-width="0.5"/>
    <line x1="240" y1="0" x2="240" y2="630" stroke="#00d2ff" stroke-width="0.5"/>
    <line x1="300" y1="0" x2="300" y2="630" stroke="#00d2ff" stroke-width="0.5"/>
    <line x1="360" y1="0" x2="360" y2="630" stroke="#00d2ff" stroke-width="0.5"/>
    <line x1="420" y1="0" x2="420" y2="630" stroke="#00d2ff" stroke-width="0.5"/>
    <line x1="480" y1="0" x2="480" y2="630" stroke="#00d2ff" stroke-width="0.5"/>
    <line x1="540" y1="0" x2="540" y2="630" stroke="#00d2ff" stroke-width="0.5"/>
    <line x1="600" y1="0" x2="600" y2="630" stroke="#00d2ff" stroke-width="0.5"/>
    <line x1="660" y1="0" x2="660" y2="630" stroke="#00d2ff" stroke-width="0.5"/>
    <line x1="720" y1="0" x2="720" y2="630" stroke="#00d2ff" stroke-width="0.5"/>
    <line x1="780" y1="0" x2="780" y2="630" stroke="#00d2ff" stroke-width="0.5"/>
    <line x1="840" y1="0" x2="840" y2="630" stroke="#00d2ff" stroke-width="0.5"/>
    <line x1="900" y1="0" x2="900" y2="630" stroke="#00d2ff" stroke-width="0.5"/>
    <line x1="960" y1="0" x2="960" y2="630" stroke="#00d2ff" stroke-width="0.5"/>
    <line x1="1020" y1="0" x2="1020" y2="630" stroke="#00d2ff" stroke-width="0.5"/>
    <line x1="1080" y1="0" x2="1080" y2="630" stroke="#00d2ff" stroke-width="0.5"/>
    <line x1="1140" y1="0" x2="1140" y2="630" stroke="#00d2ff" stroke-width="0.5"/>
    <line x1="1200" y1="0" x2="1200" y2="630" stroke="#00d2ff" stroke-width="0.5"/>
    <line x1="0" y1="0" x2="1200" y2="0" stroke="#00d2ff" stroke-width="0.5"/>
    <line x1="0" y1="60" x2="1200" y2="60" stroke="#00d2ff" stroke-width="0.5"/>
    <line x1="0" y1="120" x2="1200" y2="120" stroke="#00d2ff" stroke-width="0.5"/>
    <line x1="0" y1="180" x2="1200" y2="180" stroke="#00d2ff" stroke-width="0.5"/>
    <line x1="0" y1="240" x2="1200" y2="240" stroke="#00d2ff" stroke-width="0.5"/>
    <line x1="0" y1="300" x2="1200" y2="300" stroke="#00d2ff" stroke-width="0.5"/>
    <line x1="0" y1="360" x2="1200" y2="360" stroke="#00d2ff" stroke-width="0.5"/>
    <line x1="0" y1="420" x2="1200" y2="420" stroke="#00d2ff" stroke-width="0.5"/>
    <line x1="0" y1="480" x2="1200" y2="480" stroke="#00d2ff" stroke-width="0.5"/>
    <line x1="0" y1="540" x2="1200" y2="540" stroke="#00d2ff" stroke-width="0.5"/>
    <line x1="0" y1="600" x2="1200" y2="600" stroke="#00d2ff" stroke-width="0.5"/>
  </g>
  
  <!-- Decorative geometric shapes -->
  <!-- Top left circuit lines -->
  <g opacity="0.12" stroke="#00d2ff" stroke-width="1.5" fill="none">
    <polyline points="0,200 80,200 80,140 160,140"/>
    <circle cx="160" cy="140" r="4" fill="#00d2ff"/>
    <polyline points="0,260 50,260 50,320 120,320 120,380"/>
    <circle cx="120" cy="380" r="4" fill="#00d2ff"/>
    <polyline points="0,80 40,80 40,50 100,50"/>
    <circle cx="100" cy="50" r="3" fill="#00d2ff"/>
  </g>
  
  <!-- Bottom right circuit lines -->
  <g opacity="0.12" stroke="#7b2ff7" stroke-width="1.5" fill="none">
    <polyline points="1200,400 1120,400 1120,460 1040,460"/>
    <circle cx="1040" cy="460" r="4" fill="#7b2ff7"/>
    <polyline points="1200,500 1150,500 1150,550 1080,550 1080,590"/>
    <circle cx="1080" cy="590" r="4" fill="#7b2ff7"/>
    <polyline points="1200,320 1160,320 1160,370 1100,370"/>
    <circle cx="1100" cy="370" r="3" fill="#7b2ff7"/>
  </g>
  
  <!-- Floating hexagons -->
  <g opacity="0.07">
    <polygon points="180,480 210,465 240,480 240,510 210,525 180,510" stroke="#00d2ff" stroke-width="1" fill="none"/>
    <polygon points="950,100 980,85 1010,100 1010,130 980,145 950,130" stroke="#ff6b6b" stroke-width="1" fill="none"/>
    <polygon points="100,100 120,88 140,100 140,124 120,136 100,124" stroke="#7b2ff7" stroke-width="1" fill="none"/>
    <polygon points="1050,520 1070,508 1090,520 1090,544 1070,556 1050,544" stroke="#00d2ff" stroke-width="1" fill="none"/>
  </g>
  
  <!-- Glowing orbs -->
  <circle cx="150" cy="500" r="80" fill="url(#shimmer)" opacity="0.4"/>
  <circle cx="1050" cy="130" r="100" fill="url(#shimmer)" opacity="0.3"/>
  <circle cx="900" cy="500" r="60" fill="url(#shimmer)" opacity="0.25"/>
  
  <!-- Diagonal accent line -->
  <line x1="0" y1="630" x2="400" y2="430" stroke="url(#accent)" stroke-width="2" opacity="0.2"/>
  <line x1="800" y1="200" x2="1200" y2="0" stroke="url(#accent2)" stroke-width="2" opacity="0.2"/>
  
  <!-- Center content area -->
  <!-- Version badge -->
  <rect x="485" y="170" width="230" height="44" rx="22" fill="none" stroke="url(#accent)" stroke-width="1.5" opacity="0.8"/>
  <text x="600" y="198" font-family="system-ui, -apple-system, 'Segoe UI', sans-serif" font-size="18" fill="#00d2ff" text-anchor="middle" font-weight="600" letter-spacing="3">VERSION 6.0</text>
  
  <!-- Main title -->
  <text x="600" y="290" font-family="system-ui, -apple-system, 'Segoe UI', sans-serif" font-size="72" fill="white" text-anchor="middle" font-weight="800" filter="url(#glow)">SHINY</text>
  <text x="600" y="365" font-family="system-ui, -apple-system, 'Segoe UI', sans-serif" font-size="56" fill="url(#accent)" text-anchor="middle" font-weight="700" filter="url(#glow)">MEDIATOR</text>
  
  <!-- Accent line under title -->
  <rect x="350" y="390" width="500" height="3" rx="1.5" fill="url(#accent)" opacity="0.6"/>
  
  <!-- Tagline -->
  <text x="600" y="435" font-family="system-ui, -apple-system, 'Segoe UI', sans-serif" font-size="20" fill="#a0a0b8" text-anchor="middle" font-weight="400" letter-spacing="1">.NET Mediation — Batteries Included</text>

  <!-- Feature pills -->
  <g font-family="system-ui, -apple-system, 'Segoe UI', sans-serif" font-size="13" font-weight="500">
    <!-- Row 1 -->
    <rect x="255" y="465" width="100" height="30" rx="15" fill="#00d2ff" fill-opacity="0.12" stroke="#00d2ff" stroke-width="0.8" stroke-opacity="0.4"/>
    <text x="305" y="484" fill="#00d2ff" text-anchor="middle">AOT Ready</text>
    
    <rect x="375" y="465" width="130" height="30" rx="15" fill="#7b2ff7" fill-opacity="0.12" stroke="#7b2ff7" stroke-width="0.8" stroke-opacity="0.4"/>
    <text x="440" y="484" fill="#a78bfa" text-anchor="middle">Source Gen</text>
    
    <rect x="525" y="465" width="150" height="30" rx="15" fill="#00d2ff" fill-opacity="0.12" stroke="#00d2ff" stroke-width="0.8" stroke-opacity="0.4"/>
    <text x="600" y="484" fill="#00d2ff" text-anchor="middle">HTTP Client Gen</text>
    
    <rect x="695" y="465" width="120" height="30" rx="15" fill="#7b2ff7" fill-opacity="0.12" stroke="#7b2ff7" stroke-width="0.8" stroke-opacity="0.4"/>
    <text x="755" y="484" fill="#a78bfa" text-anchor="middle">Throttling</text>
    
    <rect x="835" y="465" width="110" height="30" rx="15" fill="#ff6b6b" fill-opacity="0.12" stroke="#ff6b6b" stroke-width="0.8" stroke-opacity="0.4"/>
    <text x="890" y="484" fill="#ff6b6b" text-anchor="middle">SSE Streams</text>
  </g>
  
  <!-- Bottom subtle branding -->
  <text x="600" y="560" font-family="system-ui, -apple-system, 'Segoe UI', sans-serif" font-size="14" fill="#4a4a6a" text-anchor="middle" letter-spacing="1">shinylib.net</text>
</svg>
