<svg xmlns="http://www.w3.org/2000/svg" viewBox="0 0 1200 630" width="1200" height="630">
  <defs>
    <linearGradient id="bg" x1="0%" y1="0%" x2="100%" y2="100%">
      <stop offset="0%" style="stop-color:#1a1a2e"/>
      <stop offset="50%" style="stop-color:#16213e"/>
      <stop offset="100%" style="stop-color:#0f3460"/>
    </linearGradient>
    <linearGradient id="accent" x1="0%" y1="0%" x2="100%" y2="0%">
      <stop offset="0%" style="stop-color:#e94560"/>
      <stop offset="100%" style="stop-color:#f5a623"/>
    </linearGradient>
    <linearGradient id="accent2" x1="0%" y1="0%" x2="100%" y2="0%">
      <stop offset="0%" style="stop-color:#00d2ff"/>
      <stop offset="100%" style="stop-color:#3a7bd5"/>
    </linearGradient>
    <linearGradient id="pipe" x1="0%" y1="0%" x2="100%" y2="0%">
      <stop offset="0%" style="stop-color:#3a7bd5;stop-opacity:0.6"/>
      <stop offset="50%" style="stop-color:#00d2ff;stop-opacity:0.8"/>
      <stop offset="100%" style="stop-color:#3a7bd5;stop-opacity:0.6"/>
    </linearGradient>
    <filter id="glow">
      <feGaussianBlur stdDeviation="3" result="coloredBlur"/>
      <feMerge><feMergeNode in="coloredBlur"/><feMergeNode in="SourceGraphic"/></feMerge>
    </filter>
    <filter id="glow-soft">
      <feGaussianBlur stdDeviation="6" result="coloredBlur"/>
      <feMerge><feMergeNode in="coloredBlur"/><feMergeNode in="SourceGraphic"/></feMerge>
    </filter>
  </defs>

  <!-- Background -->
  <rect width="1200" height="630" fill="url(#bg)"/>

  <!-- Subtle dot grid -->
  <g opacity="0.04" fill="#00d2ff">
    <circle cx="30" cy="30" r="1.5"/><circle cx="90" cy="30" r="1.5"/><circle cx="150" cy="30" r="1.5"/><circle cx="210" cy="30" r="1.5"/><circle cx="270" cy="30" r="1.5"/><circle cx="330" cy="30" r="1.5"/><circle cx="390" cy="30" r="1.5"/><circle cx="450" cy="30" r="1.5"/><circle cx="510" cy="30" r="1.5"/><circle cx="570" cy="30" r="1.5"/><circle cx="630" cy="30" r="1.5"/><circle cx="690" cy="30" r="1.5"/><circle cx="750" cy="30" r="1.5"/><circle cx="810" cy="30" r="1.5"/><circle cx="870" cy="30" r="1.5"/><circle cx="930" cy="30" r="1.5"/><circle cx="990" cy="30" r="1.5"/><circle cx="1050" cy="30" r="1.5"/><circle cx="1110" cy="30" r="1.5"/><circle cx="1170" cy="30" r="1.5"/>
    <circle cx="30" cy="90" r="1.5"/><circle cx="90" cy="90" r="1.5"/><circle cx="150" cy="90" r="1.5"/><circle cx="210" cy="90" r="1.5"/><circle cx="270" cy="90" r="1.5"/><circle cx="330" cy="90" r="1.5"/><circle cx="390" cy="90" r="1.5"/><circle cx="450" cy="90" r="1.5"/><circle cx="510" cy="90" r="1.5"/><circle cx="570" cy="90" r="1.5"/><circle cx="630" cy="90" r="1.5"/><circle cx="690" cy="90" r="1.5"/><circle cx="750" cy="90" r="1.5"/><circle cx="810" cy="90" r="1.5"/><circle cx="870" cy="90" r="1.5"/><circle cx="930" cy="90" r="1.5"/><circle cx="990" cy="90" r="1.5"/><circle cx="1050" cy="90" r="1.5"/><circle cx="1110" cy="90" r="1.5"/><circle cx="1170" cy="90" r="1.5"/>
    <circle cx="30" cy="150" r="1.5"/><circle cx="90" cy="150" r="1.5"/><circle cx="150" cy="150" r="1.5"/><circle cx="210" cy="150" r="1.5"/><circle cx="270" cy="150" r="1.5"/><circle cx="330" cy="150" r="1.5"/><circle cx="390" cy="150" r="1.5"/><circle cx="450" cy="150" r="1.5"/><circle cx="510" cy="150" r="1.5"/><circle cx="570" cy="150" r="1.5"/><circle cx="630" cy="150" r="1.5"/><circle cx="690" cy="150" r="1.5"/><circle cx="750" cy="150" r="1.5"/><circle cx="810" cy="150" r="1.5"/><circle cx="870" cy="150" r="1.5"/><circle cx="930" cy="150" r="1.5"/><circle cx="990" cy="150" r="1.5"/><circle cx="1050" cy="150" r="1.5"/><circle cx="1110" cy="150" r="1.5"/><circle cx="1170" cy="150" r="1.5"/>
    <circle cx="30" cy="210" r="1.5"/><circle cx="90" cy="210" r="1.5"/><circle cx="150" cy="210" r="1.5"/><circle cx="210" cy="210" r="1.5"/><circle cx="270" cy="210" r="1.5"/><circle cx="330" cy="210" r="1.5"/><circle cx="390" cy="210" r="1.5"/><circle cx="450" cy="210" r="1.5"/><circle cx="510" cy="210" r="1.5"/><circle cx="570" cy="210" r="1.5"/><circle cx="630" cy="210" r="1.5"/><circle cx="690" cy="210" r="1.5"/><circle cx="750" cy="210" r="1.5"/><circle cx="810" cy="210" r="1.5"/><circle cx="870" cy="210" r="1.5"/><circle cx="930" cy="210" r="1.5"/><circle cx="990" cy="210" r="1.5"/><circle cx="1050" cy="210" r="1.5"/><circle cx="1110" cy="210" r="1.5"/><circle cx="1170" cy="210" r="1.5"/>
    <circle cx="30" cy="270" r="1.5"/><circle cx="90" cy="270" r="1.5"/><circle cx="150" cy="270" r="1.5"/><circle cx="210" cy="270" r="1.5"/><circle cx="270" cy="270" r="1.5"/><circle cx="330" cy="270" r="1.5"/><circle cx="390" cy="270" r="1.5"/><circle cx="450" cy="270" r="1.5"/><circle cx="510" cy="270" r="1.5"/><circle cx="570" cy="270" r="1.5"/><circle cx="630" cy="270" r="1.5"/><circle cx="690" cy="270" r="1.5"/><circle cx="750" cy="270" r="1.5"/><circle cx="810" cy="270" r="1.5"/><circle cx="870" cy="270" r="1.5"/><circle cx="930" cy="270" r="1.5"/><circle cx="990" cy="270" r="1.5"/><circle cx="1050" cy="270" r="1.5"/><circle cx="1110" cy="270" r="1.5"/><circle cx="1170" cy="270" r="1.5"/>
    <circle cx="30" cy="330" r="1.5"/><circle cx="90" cy="330" r="1.5"/><circle cx="150" cy="330" r="1.5"/><circle cx="210" cy="330" r="1.5"/><circle cx="270" cy="330" r="1.5"/><circle cx="330" cy="330" r="1.5"/><circle cx="390" cy="330" r="1.5"/><circle cx="450" cy="330" r="1.5"/><circle cx="510" cy="330" r="1.5"/><circle cx="570" cy="330" r="1.5"/><circle cx="630" cy="330" r="1.5"/><circle cx="690" cy="330" r="1.5"/><circle cx="750" cy="330" r="1.5"/><circle cx="810" cy="330" r="1.5"/><circle cx="870" cy="330" r="1.5"/><circle cx="930" cy="330" r="1.5"/><circle cx="990" cy="330" r="1.5"/><circle cx="1050" cy="330" r="1.5"/><circle cx="1110" cy="330" r="1.5"/><circle cx="1170" cy="330" r="1.5"/>
    <circle cx="30" cy="390" r="1.5"/><circle cx="90" cy="390" r="1.5"/><circle cx="150" cy="390" r="1.5"/><circle cx="210" cy="390" r="1.5"/><circle cx="270" cy="390" r="1.5"/><circle cx="330" cy="390" r="1.5"/><circle cx="390" cy="390" r="1.5"/><circle cx="450" cy="390" r="1.5"/><circle cx="510" cy="390" r="1.5"/><circle cx="570" cy="390" r="1.5"/><circle cx="630" cy="390" r="1.5"/><circle cx="690" cy="390" r="1.5"/><circle cx="750" cy="390" r="1.5"/><circle cx="810" cy="390" r="1.5"/><circle cx="870" cy="390" r="1.5"/><circle cx="930" cy="390" r="1.5"/><circle cx="990" cy="390" r="1.5"/><circle cx="1050" cy="390" r="1.5"/><circle cx="1110" cy="390" r="1.5"/><circle cx="1170" cy="390" r="1.5"/>
    <circle cx="30" cy="450" r="1.5"/><circle cx="90" cy="450" r="1.5"/><circle cx="150" cy="450" r="1.5"/><circle cx="210" cy="450" r="1.5"/><circle cx="270" cy="450" r="1.5"/><circle cx="330" cy="450" r="1.5"/><circle cx="390" cy="450" r="1.5"/><circle cx="450" cy="450" r="1.5"/><circle cx="510" cy="450" r="1.5"/><circle cx="570" cy="450" r="1.5"/><circle cx="630" cy="450" r="1.5"/><circle cx="690" cy="450" r="1.5"/><circle cx="750" cy="450" r="1.5"/><circle cx="810" cy="450" r="1.5"/><circle cx="870" cy="450" r="1.5"/><circle cx="930" cy="450" r="1.5"/><circle cx="990" cy="450" r="1.5"/><circle cx="1050" cy="450" r="1.5"/><circle cx="1110" cy="450" r="1.5"/><circle cx="1170" cy="450" r="1.5"/>
    <circle cx="30" cy="510" r="1.5"/><circle cx="90" cy="510" r="1.5"/><circle cx="150" cy="510" r="1.5"/><circle cx="210" cy="510" r="1.5"/><circle cx="270" cy="510" r="1.5"/><circle cx="330" cy="510" r="1.5"/><circle cx="390" cy="510" r="1.5"/><circle cx="450" cy="510" r="1.5"/><circle cx="510" cy="510" r="1.5"/><circle cx="570" cy="510" r="1.5"/><circle cx="630" cy="510" r="1.5"/><circle cx="690" cy="510" r="1.5"/><circle cx="750" cy="510" r="1.5"/><circle cx="810" cy="510" r="1.5"/><circle cx="870" cy="510" r="1.5"/><circle cx="930" cy="510" r="1.5"/><circle cx="990" cy="510" r="1.5"/><circle cx="1050" cy="510" r="1.5"/><circle cx="1110" cy="510" r="1.5"/><circle cx="1170" cy="510" r="1.5"/>
    <circle cx="30" cy="570" r="1.5"/><circle cx="90" cy="570" r="1.5"/><circle cx="150" cy="570" r="1.5"/><circle cx="210" cy="570" r="1.5"/><circle cx="270" cy="570" r="1.5"/><circle cx="330" cy="570" r="1.5"/><circle cx="390" cy="570" r="1.5"/><circle cx="450" cy="570" r="1.5"/><circle cx="510" cy="570" r="1.5"/><circle cx="570" cy="570" r="1.5"/><circle cx="630" cy="570" r="1.5"/><circle cx="690" cy="570" r="1.5"/><circle cx="750" cy="570" r="1.5"/><circle cx="810" cy="570" r="1.5"/><circle cx="870" cy="570" r="1.5"/><circle cx="930" cy="570" r="1.5"/><circle cx="990" cy="570" r="1.5"/><circle cx="1050" cy="570" r="1.5"/><circle cx="1110" cy="570" r="1.5"/><circle cx="1170" cy="570" r="1.5"/>
  </g>

  <!-- Pipeline visualization — the mediator concept -->
  <!-- Left pipeline entry -->
  <g opacity="0.15">
    <!-- Incoming arrows from left -->
    <line x1="0" y1="280" x2="200" y2="310" stroke="#e94560" stroke-width="1.5"/>
    <line x1="0" y1="315" x2="200" y2="315" stroke="#00d2ff" stroke-width="1.5"/>
    <line x1="0" y1="350" x2="200" y2="320" stroke="#f5a623" stroke-width="1.5"/>
    <!-- Outgoing arrows to right -->
    <line x1="1000" y1="310" x2="1200" y2="280" stroke="#e94560" stroke-width="1.5"/>
    <line x1="1000" y1="315" x2="1200" y2="315" stroke="#00d2ff" stroke-width="1.5"/>
    <line x1="1000" y1="320" x2="1200" y2="350" stroke="#f5a623" stroke-width="1.5"/>
  </g>

  <!-- Pipeline nodes — left side -->
  <g filter="url(#glow-soft)">
    <circle cx="200" cy="315" r="18" fill="none" stroke="#00d2ff" stroke-width="1.2" opacity="0.25"/>
    <circle cx="200" cy="315" r="6" fill="#00d2ff" opacity="0.35"/>
    <text x="200" y="355" font-family="monospace" font-size="10" fill="#3a7bd5" text-anchor="middle" opacity="0.5">Request</text>
  </g>

  <!-- Pipeline nodes — right side -->
  <g filter="url(#glow-soft)">
    <circle cx="1000" cy="315" r="18" fill="none" stroke="#f5a623" stroke-width="1.2" opacity="0.25"/>
    <circle cx="1000" cy="315" r="6" fill="#f5a623" opacity="0.35"/>
    <text x="1000" y="355" font-family="monospace" font-size="10" fill="#f5a623" text-anchor="middle" opacity="0.5">Response</text>
  </g>

  <!-- Connecting pipeline line -->
  <line x1="220" y1="315" x2="370" y2="315" stroke="url(#pipe)" stroke-width="2" stroke-dasharray="6 4" opacity="0.35"/>
  <line x1="830" y1="315" x2="980" y2="315" stroke="url(#pipe)" stroke-width="2" stroke-dasharray="6 4" opacity="0.35"/>

  <!-- Middleware ring visualization (center) -->
  <g opacity="0.08">
    <circle cx="600" cy="315" r="200" fill="none" stroke="#00d2ff" stroke-width="0.8"/>
    <circle cx="600" cy="315" r="170" fill="none" stroke="#3a7bd5" stroke-width="0.6"/>
    <circle cx="600" cy="315" r="140" fill="none" stroke="#e94560" stroke-width="0.5" stroke-dasharray="4 6"/>
  </g>

  <!-- Glowing ambient orbs -->
  <circle cx="160" cy="150" r="100" fill="#e94560" opacity="0.04"/>
  <circle cx="1040" cy="480" r="120" fill="#00d2ff" opacity="0.04"/>
  <circle cx="600" cy="315" r="140" fill="#3a7bd5" opacity="0.05"/>

  <!-- Center mediator symbol — abstract diamond -->
  <g transform="translate(600,200)" opacity="0.12" filter="url(#glow-soft)">
    <polygon points="0,-40 40,0 0,40 -40,0" fill="none" stroke="#00d2ff" stroke-width="1.5"/>
    <polygon points="0,-25 25,0 0,25 -25,0" fill="none" stroke="#e94560" stroke-width="1"/>
    <circle cx="0" cy="0" r="5" fill="#00d2ff" opacity="0.6"/>
  </g>

  <!-- Title -->
  <text x="600" y="300" font-family="system-ui, -apple-system, 'Segoe UI', sans-serif" font-size="64" fill="white" text-anchor="middle" font-weight="800" filter="url(#glow)">SHINY MEDIATOR</text>

  <!-- Accent bar -->
  <rect x="350" y="320" width="500" height="2.5" rx="1.25" fill="url(#accent)" opacity="0.5"/>

  <!-- Subtitle -->
  <text x="600" y="365" font-family="system-ui, -apple-system, 'Segoe UI', sans-serif" font-size="24" fill="url(#accent2)" text-anchor="middle" font-weight="600" filter="url(#glow)">Getting Started</text>

  <!-- Tagline -->
  <text x="600" y="405" font-family="system-ui, -apple-system, 'Segoe UI', sans-serif" font-size="16" fill="#7a8bb5" text-anchor="middle" font-weight="400" letter-spacing="2">A Mediator Pattern for ALL .NET Apps — Batteries Included</text>

  <!-- Feature pills row -->
  <g font-family="system-ui, -apple-system, 'Segoe UI', sans-serif" font-size="12" font-weight="500">
    <rect x="240" y="440" width="90" height="28" rx="14" fill="#e94560" fill-opacity="0.1" stroke="#e94560" stroke-width="0.7" stroke-opacity="0.35"/>
    <text x="285" y="458" fill="#e94560" text-anchor="middle">Caching</text>

    <rect x="345" y="440" width="90" height="28" rx="14" fill="#00d2ff" fill-opacity="0.1" stroke="#00d2ff" stroke-width="0.7" stroke-opacity="0.35"/>
    <text x="390" y="458" fill="#00d2ff" text-anchor="middle">Offline</text>

    <rect x="450" y="440" width="105" height="28" rx="14" fill="#f5a623" fill-opacity="0.1" stroke="#f5a623" stroke-width="0.7" stroke-opacity="0.35"/>
    <text x="502" y="458" fill="#f5a623" text-anchor="middle">Validation</text>

    <rect x="570" y="440" width="115" height="28" rx="14" fill="#3a7bd5" fill-opacity="0.1" stroke="#3a7bd5" stroke-width="0.7" stroke-opacity="0.35"/>
    <text x="627" y="458" fill="#3a7bd5" text-anchor="middle">HTTP Client</text>

    <rect x="700" y="440" width="80" height="28" rx="14" fill="#e94560" fill-opacity="0.1" stroke="#e94560" stroke-width="0.7" stroke-opacity="0.35"/>
    <text x="740" y="458" fill="#e94560" text-anchor="middle">Events</text>

    <rect x="795" y="440" width="120" height="28" rx="14" fill="#00d2ff" fill-opacity="0.1" stroke="#00d2ff" stroke-width="0.7" stroke-opacity="0.35"/>
    <text x="855" y="458" fill="#00d2ff" text-anchor="middle">Source Gen</text>
  </g>

  <!-- Subtle code snippet in background -->
  <g font-family="'SF Mono', 'Fira Code', 'Cascadia Code', monospace" font-size="11" opacity="0.06" fill="#00d2ff">
    <text x="80" y="510">public class MyHandler : IRequestHandler&lt;MyRequest, MyResult&gt;</text>
    <text x="80" y="526">{</text>
    <text x="80" y="542">    [Cache(300)]  [OfflineAvailable]</text>
    <text x="80" y="558">    public async Task&lt;MyResult&gt; Handle(MyRequest request, ...)</text>
    <text x="80" y="574">    {</text>
    <text x="80" y="590">        return await db.GetData(request.Id);</text>
    <text x="80" y="606">    }</text>
    <text x="80" y="622">}</text>
  </g>

  <!-- Bottom branding -->
  <text x="600" y="560" font-family="system-ui, -apple-system, 'Segoe UI', sans-serif" font-size="13" fill="#3a4a6a" text-anchor="middle" letter-spacing="1.5">shinylib.net/mediator</text>
</svg>
