<svg xmlns="http://www.w3.org/2000/svg" viewBox="0 0 512 512">
  <!-- Plex play triangle -->
  <polygon points="160,96 160,416 416,256" fill="#FFFFFF"/>
  <!-- Shiny sparkle - top right -->
  <g transform="translate(380,100)">
    <path d="M0,-32 L6,-6 L32,0 L6,6 L0,32 L-6,6 L-32,0 L-6,-6 Z" fill="#E5A00D" opacity="0.95"/>
  </g>
  <!-- Shiny sparkle - small accent -->
  <g transform="translate(340,160)">
    <path d="M0,-14 L3,-3 L14,0 L3,3 L0,14 L-3,3 L-14,0 L-3,-3 Z" fill="#E5A00D" opacity="0.75"/>
  </g>
  <!-- Shiny sparkle - bottom left accent -->
  <g transform="translate(145,390)">
    <path d="M0,-16 L3,-3 L16,0 L3,3 L0,16 L-3,3 L-16,0 L-3,-3 Z" fill="#E5A00D" opacity="0.6"/>
  </g>
</svg>
